<svg width="40" height="50" viewBox="0 0 40 50" fill="none" xmlns="http://www.w3.org/2000/svg">
<path d="M16.2325 1.07342H3.17607C1.97426 1.07342 1 2.25274 1 3.7075V45.8527C1 47.3074 1.97426 48.4868 3.17607 48.4868H16.2325C17.4343 48.4868 18.4086 47.3074 18.4086 45.8527V3.7075C18.4086 2.25274 17.4343 1.07342 16.2325 1.07342Z" stroke="black" stroke-width="2" stroke-linecap="round" stroke-linejoin="round"/>
<path d="M9.70428 1.07342V48.4868M38.8637 42.9552C39.2989 44.2722 38.6461 45.8527 37.558 46.3795L33.4235 48.2233C32.3354 48.7502 31.0298 47.9599 30.5946 46.6429L18.6262 6.60498C18.191 5.28794 18.8438 3.7075 19.9318 3.18068L24.0664 1.33683C25.1544 0.810016 26.4601 1.60024 26.8953 2.91728L38.8637 42.9552Z" stroke="black" stroke-width="2" stroke-linecap="round" stroke-linejoin="round"/>
</svg>
