<svg width="55" height="60" viewBox="0 0 55 60" fill="none" xmlns="http://www.w3.org/2000/svg">
<path d="M39.708 30.263L27.5 39.0413L15.292 30.263L14.5 29.6936V43.2073L14.709 43.3567L27.209 52.3128L27.5 52.5218L27.791 52.3128L40.291 43.3567L40.5 43.2073V29.6936L39.708 30.263ZM27.208 7.24734L10.1582 19.4964L9.59277 19.9026L10.1582 20.3089L27.208 32.5569L27.5 32.7669L27.792 32.5569L44.8418 20.3089L45.4072 19.9026L44.8418 19.4964L27.792 7.24734L27.5 7.03836L27.208 7.24734ZM10.5 26.8235L10.292 26.6741L0.857422 19.9016L27.5 0.761992L54.5 20.1585V45.7434H50.5V22.5169L49.708 23.0852L44.708 26.6741L44.5 26.8235V46.5794L27.5 58.7971L10.5 46.5794V26.8235Z" fill="black" stroke="#3F5C2C"/>
</svg>
