<svg width="90" height="90" viewBox="0 0 90 90" fill="none" xmlns="http://www.w3.org/2000/svg">
<rect width="90" height="90" fill="#496B32"/>
<path d="M19.2656 42.0082C18.7426 43.0994 18.0614 44.1076 17.2441 45C18.0614 45.8924 18.7426 46.9006 19.2656 47.9918C21.0937 51.7641 21.0938 56.1902 21.0938 60.4687C21.0938 69.5883 21.7406 71.7187 28.125 71.7187C29.2439 71.7187 30.3169 72.1632 31.1081 72.9544C31.8993 73.7456 32.3438 74.8186 32.3438 75.9375C32.3438 77.0564 31.8993 78.1294 31.1081 78.9206C30.3169 79.7118 29.2439 80.1562 28.125 80.1562C21.3961 80.1562 16.8047 77.7305 14.4844 72.9457C12.6563 69.1734 12.6562 64.7473 12.6562 60.4687C12.6562 51.3492 12.0094 49.2187 5.625 49.2187C4.50612 49.2187 3.43306 48.7743 2.64189 47.9831C1.85072 47.1919 1.40625 46.1189 1.40625 45C1.40625 43.8811 1.85072 42.8081 2.64189 42.0169C3.43306 41.2257 4.50612 40.7812 5.625 40.7812C12.0094 40.7812 12.6562 38.6508 12.6562 29.5312C12.6562 25.2527 12.6563 20.8266 14.4844 17.0543C16.8047 12.2695 21.3961 9.84375 28.125 9.84375C29.2439 9.84375 30.3169 10.2882 31.1081 11.0794C31.8993 11.8706 32.3438 12.9436 32.3438 14.0625C32.3438 15.1814 31.8993 16.2544 31.1081 17.0456C30.3169 17.8368 29.2439 18.2812 28.125 18.2812C21.7406 18.2812 21.0938 20.4117 21.0938 29.5312C21.0938 33.8098 21.0937 38.2359 19.2656 42.0082ZM84.375 40.7812C77.9906 40.7812 77.3438 38.6508 77.3438 29.5312C77.3438 25.2527 77.3438 20.8266 75.5156 17.0543C73.1953 12.2695 68.6039 9.84375 61.875 9.84375C60.7561 9.84375 59.6831 10.2882 58.8919 11.0794C58.1007 11.8706 57.6562 12.9436 57.6562 14.0625C57.6562 15.1814 58.1007 16.2544 58.8919 17.0456C59.6831 17.8368 60.7561 18.2812 61.875 18.2812C68.2594 18.2812 68.9062 20.4117 68.9062 29.5312C68.9062 33.8098 68.9062 38.2359 70.7344 42.0082C71.2628 43.1006 71.9499 44.1087 72.7734 45C71.9562 45.8924 71.275 46.9006 70.752 47.9918C68.9062 51.7641 68.9062 56.1902 68.9062 60.4687C68.9062 69.5883 68.2594 71.7187 61.875 71.7187C60.7561 71.7187 59.6831 72.1632 58.8919 72.9544C58.1007 73.7456 57.6562 74.8186 57.6562 75.9375C57.6562 77.0564 58.1007 78.1294 58.8919 78.9206C59.6831 79.7118 60.7561 80.1562 61.875 80.1562C68.6039 80.1562 73.1953 77.7305 75.5156 72.9457C77.3438 69.1734 77.3438 64.7473 77.3438 60.4687C77.3438 51.3492 77.9906 49.2187 84.375 49.2187C85.4939 49.2187 86.5669 48.7743 87.3581 47.9831C88.1493 47.1919 88.5938 46.1189 88.5938 45C88.5938 43.8811 88.1493 42.8081 87.3581 42.0169C86.5669 41.2257 85.4939 40.7812 84.375 40.7812Z" fill="white"/>
</svg>
