<svg width="30" height="37" viewBox="0 0 30 37" fill="none" xmlns="http://www.w3.org/2000/svg">
<path d="M28.35 0.981476H1.65C1.21239 0.981476 0.792709 1.18753 0.483274 1.55432C0.173839 1.9211 0 2.41857 0 2.93728V34.5857C0 35.1044 0.173839 35.6019 0.483274 35.9686C0.792709 36.3354 1.21239 36.5415 1.65 36.5415H16.02V22.762H12.12V17.428H16.02V13.4275C15.9392 12.4883 16.0328 11.5395 16.2941 10.6476C16.5554 9.75581 16.9781 8.94255 17.5327 8.2649C18.0872 7.58724 18.7602 7.0616 19.5042 6.72484C20.2483 6.38808 21.0455 6.24836 21.84 6.31548C23.0075 6.30592 24.1745 6.37716 25.335 6.52884V11.3294H22.95C21.06 11.3294 20.7 12.3962 20.7 13.9431V17.3746H25.2L24.615 22.7086H20.7V36.5415H28.35C28.5667 36.5415 28.7812 36.4909 28.9814 36.3926C29.1816 36.2943 29.3635 36.1503 29.5167 35.9686C29.6699 35.787 29.7915 35.5714 29.8744 35.3341C29.9573 35.0968 30 34.8425 30 34.5857V2.93728C30 2.68044 29.9573 2.42611 29.8744 2.18882C29.7915 1.95154 29.6699 1.73593 29.5167 1.55432C29.3635 1.3727 29.1816 1.22864 28.9814 1.13035C28.7812 1.03206 28.5667 0.981476 28.35 0.981476Z" fill="#86A870"/>
</svg>
