<svg width="60" height="60" viewBox="0 0 60 60" fill="none" xmlns="http://www.w3.org/2000/svg">
<g clip-path="url(#clip0_52_273)">
<path d="M12.6429 30L12.6686 40.7871C12.6686 41.2508 12.819 41.7019 13.0971 42.0729L13.1014 42.0771L13.1057 42.0814L13.1143 42.0943L13.1357 42.12L13.2043 42.2057L13.4186 42.4629C13.6043 42.6743 13.8686 42.9471 14.2114 43.2814C14.9057 43.9414 15.9257 44.7986 17.31 45.6514C20.0871 47.3614 24.27 49.0114 29.9957 49.0114C35.7257 49.0114 39.9129 47.3571 42.6986 45.6514C44.0829 44.8029 45.1071 43.9457 45.8014 43.2857C46.1605 42.9456 46.4996 42.585 46.8171 42.2057L46.8814 42.1243L46.9029 42.0986L46.9114 42.0857C46.9114 42.0857 46.92 42.0771 45.2143 40.7829L46.92 42.0771C47.2015 41.7044 47.3535 41.2499 47.3529 40.7829V30L32.9786 36.2271C32.0377 36.6346 31.0232 36.8449 29.9979 36.8449C28.9725 36.8449 27.958 36.6346 27.0171 36.2271L12.6429 30Z" fill="#3F5C2C"/>
<path fill-rule="evenodd" clip-rule="evenodd" d="M7.26429 17.4386C8.44714 17.4386 9.40714 18.6386 9.40714 20.1171V49.6457C9.40714 51.1286 8.44714 52.3286 7.26429 52.3286C6.08143 52.3286 5.12143 51.1286 5.12143 49.6457V20.1171C5.12143 18.6386 6.08143 17.4386 7.26429 17.4386Z" fill="#012F01"/>
<path fill-rule="evenodd" clip-rule="evenodd" d="M7.26857 47.1343C6.5533 47.1055 5.8396 47.2216 5.1703 47.4755C4.50099 47.7294 3.88988 48.1159 3.37364 48.6118C2.8574 49.1077 2.44667 49.7028 2.1661 50.3614C1.88553 51.02 1.7409 51.7284 1.7409 52.4443C1.7409 53.1601 1.88553 53.8686 2.1661 54.5272C2.44667 55.1857 2.8574 55.7808 3.37364 56.2768C3.88988 56.7727 4.50099 57.1592 5.1703 57.4131C5.8396 57.667 6.5533 57.783 7.26857 57.7543C8.63996 57.6992 9.93684 57.1156 10.8877 56.1258C11.8385 55.136 12.3695 53.8168 12.3695 52.4443C12.3695 51.0718 11.8385 49.7525 10.8877 48.7627C9.93684 47.7729 8.63996 47.1894 7.26857 47.1343ZM30.8529 3.82286C30.5837 3.70608 30.2934 3.64583 30 3.64583C29.7066 3.64583 29.4163 3.70608 29.1471 3.82286L1.29 15.8914C0.905992 16.0573 0.578935 16.332 0.349165 16.6815C0.119395 17.0311 -0.00304031 17.4403 -0.00304031 17.8586C-0.00304031 18.2769 0.119395 18.686 0.349165 19.0356C0.578935 19.3852 0.905992 19.6598 1.29 19.8257L29.1471 31.8943C29.4163 32.0111 29.7066 32.0713 30 32.0713C30.2934 32.0713 30.5837 32.0111 30.8529 31.8943L58.71 19.8257C59.094 19.6598 59.4211 19.3852 59.6508 19.0356C59.8806 18.686 60.003 18.2769 60.003 17.8586C60.003 17.4403 59.8806 17.0311 59.6508 16.6815C59.4211 16.332 59.094 16.0573 58.71 15.8914L30.8529 3.82286Z" fill="#3F5C2C"/>
<path fill-rule="evenodd" clip-rule="evenodd" d="M12.6429 24.7457L29.1471 31.8943C29.4163 32.0111 29.7066 32.0713 30 32.0713C30.2934 32.0713 30.5837 32.0111 30.8529 31.8943L47.3529 24.7457V39.5143V30L32.9786 36.2271C32.0377 36.6346 31.0232 36.8449 29.9979 36.8449C28.9725 36.8449 27.958 36.6346 27.0171 36.2271L12.6429 30V24.7457ZM12.6429 30L12.6643 39.5143H12.6471L12.6429 30Z" fill="#012F01"/>
</g>
<defs>
<clipPath id="clip0_52_273">
<rect width="60" height="60" fill="white"/>
</clipPath>
</defs>
</svg>
