<svg width="60" height="60" viewBox="0 0 60 60" fill="none" xmlns="http://www.w3.org/2000/svg">
<path d="M30 54C36.3652 54 42.4697 51.4714 46.9706 46.9706C51.4714 42.4697 54 36.3652 54 30C54 23.6348 51.4714 17.5303 46.9706 13.0294C42.4697 8.52856 36.3652 5.99999 30 5.99999C23.6348 5.99999 17.5303 8.52856 13.0294 13.0294C8.52856 17.5303 6 23.6348 6 30C6 36.3652 8.52856 42.4697 13.0294 46.9706C17.5303 51.4714 23.6348 54 30 54Z" fill="url(#paint0_linear_52_279)"/>
<path fill-rule="evenodd" clip-rule="evenodd" d="M23.559 6.873C22.5603 8.27687 21.7381 9.7983 21.111 11.403C20.007 14.121 19.161 17.388 18.633 21H7.74C7.35 21.97 7.02 22.97 6.75 24H18.27C17.9066 27.9918 17.9076 32.0084 18.273 36H6.753C7.023 37.03 7.353 38.03 7.743 39H18.633C19.161 42.612 20.007 45.879 21.111 48.597C21.7381 50.2017 22.5603 51.7231 23.559 53.127C25.6565 53.7087 27.8233 54.0024 30 54C32.1767 54.0024 34.3435 53.7087 36.441 53.127C37.4397 51.7231 38.2619 50.2017 38.889 48.597C39.993 45.879 40.839 42.612 41.367 39H52.257C52.647 38.03 52.976 37.03 53.244 36H41.724C42.0952 32.0086 42.0952 27.9914 41.724 24H53.244C52.9802 22.9793 52.6495 21.9772 52.254 21H41.37C40.842 17.388 39.996 14.121 38.892 11.403C38.2649 9.7983 37.4427 8.27687 36.444 6.873C34.3456 6.291 32.1777 5.9973 30 6C27.8233 5.99758 25.6565 6.29127 23.559 6.873ZM21.669 21C22.167 17.772 22.929 14.895 23.889 12.534C24.783 10.335 25.815 8.658 26.898 7.554C27.972 6.459 29.016 6 30 6C30.984 6 32.028 6.459 33.102 7.554C34.182 8.658 35.217 10.335 36.111 12.534C37.071 14.895 37.833 17.772 38.331 21H21.669ZM30 54C30.984 54 32.028 53.541 33.102 52.446C34.182 51.342 35.217 49.665 36.111 47.466C37.071 45.105 37.833 42.228 38.331 39H21.669C22.17 42.228 22.932 45.105 23.892 47.466C24.786 49.665 25.818 51.342 26.901 52.446C27.975 53.541 29.019 54 30.003 54M21.003 30C21.003 32.076 21.102 34.086 21.291 36H38.715C38.9053 34.0057 39.0005 32.0034 39 30C39 27.924 38.901 25.914 38.712 24H21.288C21.0967 25.9943 21.0035 27.9966 21.003 30Z" fill="url(#paint1_radial_52_279)"/>
<defs>
<linearGradient id="paint0_linear_52_279" x1="16.668" y1="14.001" x2="51.333" y2="45.999" gradientUnits="userSpaceOnUse">
<stop stop-color="#012F01"/>
<stop offset="1" stop-color="#026E02"/>
</linearGradient>
<radialGradient id="paint1_radial_52_279" cx="0" cy="0" r="1" gradientUnits="userSpaceOnUse" gradientTransform="translate(44.9992 42.0093) rotate(-135) scale(38.1939)">
<stop stop-color="#3F5C2C"/>
<stop offset="0.974" stop-color="#6BA446"/>
</radialGradient>
</defs>
</svg>
