<svg width="60" height="60" viewBox="0 0 60 60" fill="none" xmlns="http://www.w3.org/2000/svg">
<path d="M10.87 57.5H55.1075C55.4218 57.5003 55.733 57.4387 56.0235 57.3186C56.3139 57.1984 56.5778 57.0222 56.8 56.8C57.0222 56.5778 57.1984 56.3139 57.3186 56.0235C57.4387 55.733 57.5003 55.4218 57.5 55.1075V12.065C57.5 11.7509 57.4381 11.4399 57.3178 11.1498C57.1976 10.8597 57.0213 10.5961 56.7991 10.3741C56.5769 10.1522 56.3131 9.97617 56.0229 9.85621C55.7326 9.73625 55.4216 9.67467 55.1075 9.675H10.87V57.5Z" fill="#3F5C2C"/>
<path d="M2.5 49.13V10.87C2.5 8.65014 3.38184 6.5212 4.95152 4.95152C6.5212 3.38184 8.65014 2.5 10.87 2.5C13.0899 2.5 15.2188 3.38184 16.7885 4.95152C18.3582 6.5212 19.24 8.65014 19.24 10.87V49.13H2.5Z" fill="#3F5C2C"/>
<path d="M10.87 2.5C8.65054 2.50132 6.52237 3.38359 4.95298 4.95298C3.38359 6.52237 2.50132 8.65054 2.5 10.87V49.13H10.87V2.5Z" fill="#3F5C2C"/>
<path d="M36.37 22.3625C36.5905 22.1636 36.8768 22.0536 37.1737 22.0536C37.4707 22.0536 37.757 22.1636 37.9775 22.3625L45.5425 29.2375V41.9575C45.5428 42.1145 45.5121 42.2701 45.4522 42.4152C45.3923 42.5603 45.3043 42.6922 45.1932 42.8032C45.0822 42.9143 44.9503 43.0023 44.8052 43.0622C44.6601 43.1221 44.5045 43.1528 44.3475 43.1525H29.9975C29.6814 43.1505 29.3788 43.0239 29.1556 42.8002C28.9323 42.5764 28.8063 42.2736 28.805 41.9575V29.24L36.37 22.3625Z" fill="white"/>
<path d="M33.5875 43.15V37.175C33.5875 36.2235 33.9655 35.311 34.6382 34.6383C35.311 33.9655 36.2235 33.5875 37.175 33.5875C38.1265 33.5875 39.039 33.9655 39.7117 34.6383C40.3845 35.311 40.7625 36.2235 40.7625 37.175V43.15H33.5875Z" fill="#86A870" stroke="#77B255" stroke-linecap="round" stroke-linejoin="round"/>
<path d="M28.805 29.24V41.9575C28.8063 42.274 28.9326 42.5772 29.1565 42.801C29.3803 43.0249 29.6835 43.1512 30 43.1525H44.3475C44.664 43.1512 44.9672 43.0249 45.191 42.801C45.4149 42.5772 45.5412 42.274 45.5425 41.9575V29.24" stroke="#77B255" stroke-linecap="round" stroke-linejoin="round"/>
<path d="M24.025 33.5875L36.3725 22.3625C36.593 22.1636 36.8793 22.0536 37.1762 22.0536C37.4732 22.0536 37.7595 22.1636 37.98 22.3625L50.33 33.5875" stroke="#77B255" stroke-linecap="round" stroke-linejoin="round"/>
<path d="M10.87 57.5C11.9692 57.5 13.0576 57.2835 14.0731 56.8629C15.0886 56.4422 16.0113 55.8257 16.7885 55.0485C17.5657 54.2713 18.1822 53.3485 18.6029 52.3331C19.0235 51.3176 19.24 50.2292 19.24 49.13C19.24 48.0308 19.0235 46.9424 18.6029 45.9269C18.1822 44.9114 17.5657 43.9887 16.7885 43.2115C16.0113 42.4343 15.0886 41.8178 14.0731 41.3971C13.0576 40.9765 11.9692 40.76 10.87 40.76C8.65014 40.76 6.5212 41.6418 4.95152 43.2115C3.38184 44.7812 2.5 46.9101 2.5 49.13C2.5 51.3499 3.38184 53.4788 4.95152 55.0485C6.5212 56.6182 8.65014 57.5 10.87 57.5Z" fill="#3F5C2C" stroke="#77B255" stroke-linecap="round" stroke-linejoin="round"/>
<path d="M10.87 52.7175C11.8215 52.7175 12.734 52.3395 13.4067 51.6667C14.0795 50.994 14.4575 50.0815 14.4575 49.13C14.4575 48.1785 14.0795 47.266 13.4067 46.5933C12.734 45.9205 11.8215 45.5425 10.87 45.5425C9.91854 45.5425 9.00604 45.9205 8.33326 46.5933C7.66047 47.266 7.2825 48.1785 7.2825 49.13C7.2825 50.0815 7.66047 50.994 8.33326 51.6667C9.00604 52.3395 9.91854 52.7175 10.87 52.7175Z" fill="#3F5C2C" stroke="#77B255" stroke-linecap="round" stroke-linejoin="round"/>
<path d="M2.5 49.13V10.87C2.5 8.65014 3.38184 6.5212 4.95152 4.95152C6.5212 3.38184 8.65014 2.5 10.87 2.5C13.0899 2.5 15.2188 3.38184 16.7885 4.95152C18.3582 6.5212 19.24 8.65014 19.24 10.87V49.13" stroke="#77B255" stroke-linecap="round" stroke-linejoin="round"/>
<path d="M10.87 57.5H55.1075C55.4218 57.5003 55.733 57.4387 56.0235 57.3186C56.3139 57.1984 56.5778 57.0222 56.8 56.8C57.0222 56.5778 57.1984 56.3139 57.3186 56.0235C57.4387 55.733 57.5003 55.4218 57.5 55.1075V12.065C57.5 11.7509 57.4381 11.4399 57.3178 11.1498C57.1976 10.8597 57.0213 10.5961 56.7991 10.3741C56.5769 10.1522 56.3131 9.97617 56.0229 9.85621C55.7326 9.73625 55.4216 9.67467 55.1075 9.675H25.2175" stroke="#77B255" stroke-linecap="round" stroke-linejoin="round"/>
</svg>
