<svg width="26" height="26" viewBox="0 0 26 26" fill="none" xmlns="http://www.w3.org/2000/svg">
<g clip-path="url(#clip0_52_257)">
<path d="M25.2778 18.7778C25.2778 19.544 24.9734 20.2788 24.4316 20.8205C23.8899 21.3623 23.1551 21.6667 22.3889 21.6667H3.61111C2.84493 21.6667 2.11013 21.3623 1.56836 20.8205C1.02659 20.2788 0.722221 19.544 0.722221 18.7778V4.55939C0.722221 2.964 4.90461 0 6.5 0H21.3958C23.6304 0 25.2778 1.66978 25.2778 3.88194V18.7778Z" fill="#3E721D"/>
<path d="M23.8333 21.6667C23.8333 22.4328 23.529 23.1676 22.9872 23.7094C22.4454 24.2512 21.7106 24.5556 20.9444 24.5556H5.05555C4.28937 24.5556 3.55457 24.2512 3.0128 23.7094C2.47103 23.1676 2.16667 22.4328 2.16667 21.6667V4.33333C2.16667 1.3585 2.1515 1.44444 5.77778 1.44444H20.9444C21.7106 1.44444 22.4454 1.74881 22.9872 2.29058C23.529 2.83235 23.8333 3.56715 23.8333 4.33333V21.6667Z" fill="#CCD6DD"/>
<path d="M22.3889 22.3889C22.3889 22.9635 22.1606 23.5146 21.7543 23.921C21.348 24.3273 20.7969 24.5556 20.2222 24.5556H2.88889C2.31425 24.5556 1.76315 24.3273 1.35682 23.921C0.950495 23.5146 0.722221 22.9635 0.722221 22.3889V5.05556C0.722221 4.48092 0.950495 3.92982 1.35682 3.52349C1.76315 3.11716 2.31425 2.88889 2.88889 2.88889H20.2222C20.7969 2.88889 21.348 3.11716 21.7543 3.52349C22.1606 3.92982 22.3889 4.48092 22.3889 5.05556V22.3889Z" fill="#E1E8ED"/>
<path d="M22.3889 23.1111C22.3889 23.8773 22.0845 24.6121 21.5427 25.1539C21.001 25.6956 20.2662 26 19.5 26H4.33333C3.56715 26 2.83235 25.6956 2.29058 25.1539C1.74881 24.6121 1.44444 23.8773 1.44444 23.1111V7.22222C1.44444 6.45604 1.74881 5.72124 2.29058 5.17947C2.83235 4.6377 3.56715 4.33333 4.33333 4.33333H19.5C20.2662 4.33333 21.001 4.6377 21.5427 5.17947C22.0845 5.72124 22.3889 6.45604 22.3889 7.22222V23.1111Z" fill="#5C913B"/>
<path d="M20.9444 23.1111C20.9444 23.8773 20.6401 24.6121 20.0983 25.1539C19.5565 25.6956 18.8217 26 18.0556 26H4.33333C3.56715 26 2.83235 25.6956 2.29058 25.1539C1.74881 24.6121 1.44444 23.8773 1.44444 23.1111V8.66667C1.44444 7.90049 1.74881 7.16569 2.29058 6.62391C2.83235 6.08214 3.56715 5.77778 4.33333 5.77778H18.2975C19.8929 5.77778 20.9444 6.82933 20.9444 8.42472V23.1111Z" fill="#77B255"/>
<path d="M4.33333 4.33333C3.11422 4.33333 3.08317 2.94522 3.61111 2.34722C4.212 1.66761 5.14583 1.44444 6.81633 1.44444H7.94444V0H5.98072C3.11422 0 0.722221 1.80556 0.722221 3.88194V23.1111C0.722221 23.8773 1.02659 24.6121 1.56836 25.1539C2.11013 25.6956 2.84493 26 3.61111 26H5.05555V4.33333H4.33333Z" fill="#3E721D"/>
</g>
<defs>
<clipPath id="clip0_52_257">
<rect width="26" height="26" fill="white"/>
</clipPath>
</defs>
</svg>
