<svg width="30" height="37" viewBox="0 0 30 37" fill="none" xmlns="http://www.w3.org/2000/svg">
<path d="M8.7 0.981476H21.3C26.1 0.981476 30 5.60428 30 11.2939V26.2291C30 28.9641 29.0834 31.5871 27.4518 33.521C25.8203 35.455 23.6074 36.5415 21.3 36.5415H8.7C3.9 36.5415 0 31.9187 0 26.2291V11.2939C0 8.55886 0.916605 5.93586 2.54817 4.00191C4.17974 2.06796 6.39262 0.981476 8.7 0.981476ZM8.4 4.53748C6.96783 4.53748 5.59432 5.21184 4.58162 6.41223C3.56893 7.61261 3 9.24068 3 10.9383V26.5847C3 30.1229 5.415 32.9855 8.4 32.9855H21.6C23.0322 32.9855 24.4057 32.3111 25.4184 31.1107C26.4311 29.9103 27 28.2823 27 26.5847V10.9383C27 7.40006 24.585 4.53748 21.6 4.53748H8.4ZM22.875 7.20448C23.3723 7.20448 23.8492 7.43863 24.2008 7.85543C24.5525 8.27223 24.75 8.83753 24.75 9.42698C24.75 10.0164 24.5525 10.5817 24.2008 10.9985C23.8492 11.4153 23.3723 11.6495 22.875 11.6495C22.3777 11.6495 21.9008 11.4153 21.5492 10.9985C21.1975 10.5817 21 10.0164 21 9.42698C21 8.83753 21.1975 8.27223 21.5492 7.85543C21.9008 7.43863 22.3777 7.20448 22.875 7.20448ZM15 9.87148C16.9891 9.87148 18.8968 10.8081 20.3033 12.4753C21.7098 14.1425 22.5 16.4037 22.5 18.7615C22.5 21.1193 21.7098 23.3805 20.3033 25.0477C18.8968 26.7149 16.9891 27.6515 15 27.6515C13.0109 27.6515 11.1032 26.7149 9.6967 25.0477C8.29018 23.3805 7.5 21.1193 7.5 18.7615C7.5 16.4037 8.29018 14.1425 9.6967 12.4753C11.1032 10.8081 13.0109 9.87148 15 9.87148ZM15 13.4275C13.8065 13.4275 12.6619 13.9894 11.818 14.9898C10.9741 15.9901 10.5 17.3468 10.5 18.7615C10.5 20.1761 10.9741 21.5329 11.818 22.5332C12.6619 23.5335 13.8065 24.0955 15 24.0955C16.1935 24.0955 17.3381 23.5335 18.182 22.5332C19.0259 21.5329 19.5 20.1761 19.5 18.7615C19.5 17.3468 19.0259 15.9901 18.182 14.9898C17.3381 13.9894 16.1935 13.4275 15 13.4275Z" fill="#86A870"/>
</svg>
