<svg width="24" height="29" viewBox="0 0 24 29" fill="none" xmlns="http://www.w3.org/2000/svg">
<path d="M11.9525 28.818C18.48 28.818 23.9055 22.3869 23.9055 14.6497C23.9055 6.89878 18.468 0.481384 11.9405 0.481384C5.402 0.481384 0 6.89878 0 14.6497C0 22.3869 5.4135 28.818 11.9525 28.818ZM10.8515 20.4554C10.535 20.4554 10.289 20.2895 9.996 19.9695L5.0155 14.4138C4.781 14.1495 4.699 13.8715 4.699 13.622C4.699 13.3577 4.769 13.0803 5.0155 12.816L9.9955 7.30179C10.324 6.94027 10.523 6.77373 10.8395 6.77373C11.273 6.77373 11.578 7.19037 11.578 7.67636V10.5241H11.7655C16.289 10.5241 18.2695 13.9272 18.2695 19.4698C18.2695 20.1087 17.953 20.456 17.6245 20.456C17.3555 20.456 17.0625 20.3731 16.8515 19.9001C15.7615 17.4554 14.2145 16.7335 11.7655 16.7335H11.578V19.5949C11.578 20.0945 11.273 20.4554 10.8515 20.4554Z" fill="white"/>
</svg>
