<svg width="30" height="43" viewBox="0 0 30 43" fill="none" xmlns="http://www.w3.org/2000/svg">
<path d="M15.9883 41.3602L15.97 41.3642L15.8516 41.4339L15.8183 41.4419L15.795 41.4339L15.6766 41.3642C15.6589 41.3575 15.6455 41.3609 15.6366 41.3741L15.63 41.3941L15.6016 42.2472L15.61 42.287L15.6266 42.313L15.8 42.4605L15.825 42.4684L15.845 42.4605L16.0183 42.313L16.0383 42.2811L16.045 42.2472L16.0166 41.3961C16.0122 41.3748 16.0028 41.3629 15.9883 41.3602ZM16.43 41.135L16.4083 41.1389L16.1 41.3243L16.0833 41.3443L16.0783 41.3662L16.1083 42.2233L16.1166 42.2472L16.13 42.2611L16.465 42.4465C16.4861 42.4531 16.5022 42.4478 16.5133 42.4306L16.52 42.4026L16.4633 41.1788C16.4578 41.1549 16.4466 41.1403 16.43 41.135ZM15.2383 41.1389C15.231 41.1336 15.2222 41.1319 15.2138 41.1341C15.2054 41.1364 15.1981 41.1424 15.1933 41.1509L15.1833 41.1788L15.1266 42.4026C15.1278 42.4266 15.1372 42.4425 15.155 42.4505L15.18 42.4465L15.515 42.2611L15.5316 42.2452L15.5383 42.2233L15.5666 41.3662L15.5616 41.3423L15.545 41.3223L15.2383 41.1389Z" fill="#86A870"/>
<path d="M25 0.981476C26.3261 0.981476 27.5979 1.61147 28.5355 2.73287C29.4732 3.85428 30 5.37522 30 6.96112V30.8797C30 32.4656 29.4732 33.9866 28.5355 35.108C27.5979 36.2294 26.3261 36.8594 25 36.8594H5C3.67392 36.8594 2.40215 36.2294 1.46447 35.108C0.526784 33.9866 0 32.4656 0 30.8797V6.96112C0 5.37522 0.526784 3.85428 1.46447 2.73287C2.40215 1.61147 3.67392 0.981476 5 0.981476H25ZM25 4.96791H5C4.55797 4.96791 4.13405 5.17791 3.82149 5.55171C3.50893 5.92551 3.33333 6.43249 3.33333 6.96112V30.8797C3.33333 31.4083 3.50893 31.9153 3.82149 32.2891C4.13405 32.6629 4.55797 32.8729 5 32.8729H25C25.442 32.8729 25.866 32.6629 26.1785 32.2891C26.4911 31.9153 26.6667 31.4083 26.6667 30.8797V6.96112C26.6667 6.43249 26.4911 5.92551 26.1785 5.55171C25.866 5.17791 25.442 4.96791 25 4.96791ZM8.33333 14.934C8.74156 14.934 9.13556 15.1133 9.44062 15.4377C9.74568 15.7621 9.94057 16.2091 9.98833 16.694L10 16.9272V26.8933C9.99953 27.4013 9.83687 27.8899 9.54525 28.2594C9.25364 28.6288 8.85508 28.8511 8.43101 28.8809C8.00694 28.9106 7.58937 28.7456 7.26361 28.4196C6.93786 28.0935 6.72851 27.631 6.67833 27.1265L6.66667 26.8933V16.9272C6.66667 16.3986 6.84226 15.8916 7.15482 15.5178C7.46738 15.144 7.89131 14.934 8.33333 14.934ZM13.3333 12.9408C13.7237 12.9407 14.1016 13.1045 14.4013 13.4035C14.701 13.7026 14.9035 14.1179 14.9733 14.5772C15.309 14.3453 15.6557 14.137 16.0117 13.9533C17.1233 13.3853 18.7883 13.0723 20.2917 13.6364C21.08 13.9354 21.8717 14.4935 22.4583 15.4442C22.9833 16.2914 23.2667 17.3219 23.3233 18.4799L23.3333 18.9204V26.8933C23.3329 27.4013 23.1702 27.8899 22.8786 28.2594C22.587 28.6288 22.1884 28.8511 21.7643 28.8809C21.3403 28.9106 20.9227 28.7456 20.5969 28.4196C20.2712 28.0935 20.0618 27.631 20.0117 27.1265L20 26.8933V18.9204C20 18.2627 19.8667 17.9557 19.78 17.8142C19.6554 17.6293 19.4841 17.4978 19.2917 17.4395C18.7117 17.2202 17.8767 17.3358 17.3217 17.6188C16.4883 18.0454 15.725 18.7151 15.205 19.335L15 19.5981V26.8933C14.9995 27.4013 14.8369 27.8899 14.5453 28.2594C14.2536 28.6288 13.8551 28.8511 13.431 28.8809C13.0069 28.9106 12.5894 28.7456 12.2636 28.4196C11.9379 28.0935 11.7285 27.631 11.6783 27.1265L11.6667 26.8933V14.934C11.6667 14.4054 11.8423 13.8984 12.1548 13.5246C12.4674 13.1508 12.8913 12.9408 13.3333 12.9408ZM8.33333 8.95434C8.77536 8.95434 9.19928 9.16434 9.51184 9.53814C9.8244 9.91194 10 10.4189 10 10.9476C10 11.4762 9.8244 11.9832 9.51184 12.357C9.19928 12.7308 8.77536 12.9408 8.33333 12.9408C7.89131 12.9408 7.46738 12.7308 7.15482 12.357C6.84226 11.9832 6.66667 11.4762 6.66667 10.9476C6.66667 10.4189 6.84226 9.91194 7.15482 9.53814C7.46738 9.16434 7.89131 8.95434 8.33333 8.95434Z" fill="#86A870"/>
</svg>
