<svg width="20" height="28" viewBox="0 0 20 28" fill="none" xmlns="http://www.w3.org/2000/svg">
<path d="M10 13.2372C9.0528 13.2372 8.14439 12.8782 7.47462 12.2391C6.80485 11.6 6.42857 10.7332 6.42857 9.82941C6.42857 8.9256 6.80485 8.0588 7.47462 7.41971C8.14439 6.78061 9.0528 6.42158 10 6.42158C10.9472 6.42158 11.8556 6.78061 12.5254 7.41971C13.1952 8.0588 13.5714 8.9256 13.5714 9.82941C13.5714 10.2769 13.4791 10.7201 13.2996 11.1335C13.1201 11.547 12.857 11.9227 12.5254 12.2391C12.1937 12.5556 11.8 12.8066 11.3667 12.9778C10.9334 13.1491 10.469 13.2372 10 13.2372ZM10 0.287476C7.34784 0.287476 4.8043 1.29278 2.92893 3.08224C1.05357 4.8717 0 7.29873 0 9.82941C0 16.9859 10 27.5501 10 27.5501C10 27.5501 20 16.9859 20 9.82941C20 7.29873 18.9464 4.8717 17.0711 3.08224C15.1957 1.29278 12.6522 0.287476 10 0.287476Z" fill="#86A870"/>
</svg>
