<svg width="90" height="90" viewBox="0 0 90 90" fill="none" xmlns="http://www.w3.org/2000/svg">
<rect width="90" height="90" fill="#496B32"/>
<path d="M35.625 11.25C42.0897 11.25 48.2895 13.8181 52.8607 18.3893C57.4319 22.9605 60 29.1603 60 35.625C60 41.6625 57.7875 47.2125 54.15 51.4875L55.1625 52.5H58.125L76.875 71.25L71.25 76.875L52.5 58.125V55.1625L51.4875 54.15C47.0639 57.9242 41.4399 59.9983 35.625 60C29.1603 60 22.9605 57.4319 18.3893 52.8607C13.8181 48.2895 11.25 42.0897 11.25 35.625C11.25 29.1603 13.8181 22.9605 18.3893 18.3893C22.9605 13.8181 29.1603 11.25 35.625 11.25ZM35.625 18.75C26.25 18.75 18.75 26.25 18.75 35.625C18.75 45 26.25 52.5 35.625 52.5C45 52.5 52.5 45 52.5 35.625C52.5 26.25 45 18.75 35.625 18.75Z" fill="white"/>
</svg>
