<svg width="60" height="60" viewBox="0 0 60 60" fill="none" xmlns="http://www.w3.org/2000/svg">
<path d="M6.41143 0.771432C17.6829 2.1 27.5914 6.53572 30 8.94429C32.4086 6.54 42.3214 2.10429 53.5886 0.767146C57.1114 0.351432 60 3.25715 60 6.81429V41.1C60 44.6486 57.0986 47.4771 53.6057 48.1114C45.7157 49.5429 39.1543 53.3271 34.9671 56.3186C33.506 57.327 31.7725 57.8667 29.9972 57.866C28.2219 57.8652 26.4888 57.324 25.0286 56.3143C20.8414 53.3229 14.2843 49.5429 6.39429 48.1114C2.90143 47.4729 0 44.64 0 41.0914V6.80572C0 3.25715 2.88857 0.351432 6.41143 0.767146" fill="#3F5C2C"/>
<path d="M27.3214 57.45V7.08429C28.1471 7.51967 29.0665 7.74722 30 7.74722C30.9335 7.74722 31.8529 7.51967 32.6786 7.08429V57.45C30.9343 57.9938 29.0657 57.9938 27.3214 57.45Z" fill="#012F01"/>
</svg>
