<svg width="26" height="28" viewBox="0 0 26 28" fill="none" xmlns="http://www.w3.org/2000/svg">
<path d="M7.04317 1.12726C7.73381 1.12726 10.4964 7.57411 10.4964 8.29042C10.4964 9.72306 8.42446 11.1557 7.73381 12.5883C7.04317 14.021 8.42446 15.4536 9.80576 16.8862C10.3445 17.4449 12.5683 19.7515 13.9496 19.0352C15.3309 18.3189 16.7122 16.1699 18.0935 16.1699C18.7842 16.1699 25 19.0352 25 19.7515C25 22.6168 22.9281 24.7657 20.8561 25.482C18.7842 26.1983 17.4029 26.1983 14.6403 25.482C11.8777 24.7657 9.80576 24.0494 6.35252 20.4678C2.89928 16.8862 2.20863 14.7373 1.51799 11.872C0.827338 9.00674 0.827338 7.57411 1.51799 5.42516C2.20863 3.27621 4.28058 1.12726 7.04317 1.12726Z" fill="#86A870" stroke="black" stroke-width="2" stroke-linecap="round" stroke-linejoin="round"/>
</svg>
