<svg width="63" height="62" viewBox="0 0 63 62" fill="none" xmlns="http://www.w3.org/2000/svg">
<g filter="url(#filter0_d_56_387)">
<path d="M13.1667 14.2469C13.1667 13.3243 13.4886 12.4394 14.0616 11.7871C14.6346 11.1347 15.4118 10.7682 16.2222 10.7682H46.7778C47.5882 10.7682 48.3654 11.1347 48.9384 11.7871C49.5114 12.4394 49.8333 13.3243 49.8333 14.2469V39.7573C49.8333 40.6799 49.5114 41.5647 48.9384 42.2171C48.3654 42.8695 47.5882 43.236 46.7778 43.236C45.9674 43.236 45.1902 42.8695 44.6172 42.2171C44.0441 41.5647 43.7222 40.6799 43.7222 39.7573V17.7256H16.2222C15.4118 17.7256 14.6346 17.3591 14.0616 16.7067C13.4886 16.0543 13.1667 15.1695 13.1667 14.2469ZM59 6.12992V47.8743C59 49.4119 58.4635 50.8866 57.5084 51.9739C56.5534 53.0612 55.258 53.6721 53.9074 53.6721H36.9134C36.2697 53.6719 35.6425 53.4404 35.1212 53.0104C34.5999 52.5804 34.2113 51.9739 34.0106 51.2776C33.3714 49.257 32.2002 47.5101 30.6567 46.2754C29.1132 45.0406 27.2728 44.378 25.3863 44.378C23.4999 44.378 21.6594 45.0406 20.116 46.2754C18.5725 47.5101 17.4013 49.257 16.762 51.2776C16.5617 51.973 16.1738 52.5788 15.6535 53.0087C15.1333 53.4386 14.5072 53.6707 13.8644 53.6721H9.09259C7.74195 53.6721 6.44663 53.0612 5.49159 51.9739C4.53654 50.8866 4 49.4119 4 47.8743V6.12992C4 4.59224 4.53654 3.11754 5.49159 2.03023C6.44663 0.942931 7.74195 0.33209 9.09259 0.33209H53.9074C55.258 0.33209 56.5534 0.942931 57.5084 2.03023C58.4635 3.11754 59 4.59224 59 6.12992ZM25.3889 37.4382C26.1947 37.4382 26.9823 37.1661 27.6523 36.6565C28.3223 36.1468 28.8445 35.4224 29.1528 34.5749C29.4612 33.7274 29.5419 32.7948 29.3847 31.895C29.2275 30.9953 28.8395 30.1688 28.2697 29.5202C27.6999 28.8715 26.974 28.4297 26.1837 28.2508C25.3934 28.0718 24.5742 28.1637 23.8298 28.5147C23.0854 28.8658 22.4491 29.4603 22.0014 30.223C21.5538 30.9858 21.3148 31.8826 21.3148 32.7999C21.3148 34.0301 21.744 35.2098 22.5081 36.0797C23.2721 36.9495 24.3084 37.4382 25.3889 37.4382ZM52.8889 7.28948H10.1111V46.7147H11.8731C13.1585 43.9521 15.0721 41.6334 17.4139 40.0008C16.2224 38.2932 15.478 36.2376 15.2662 34.0702C15.0544 31.9027 15.3837 29.7111 16.2165 27.7471C17.0493 25.7831 18.3516 24.1263 19.9741 22.9669C21.5965 21.8074 23.4733 21.1924 25.3889 21.1924C27.3045 21.1924 29.1812 21.8074 30.8037 22.9669C32.4261 24.1263 33.7285 25.7831 34.5613 27.7471C35.394 29.7111 35.7234 31.9027 35.5116 34.0702C35.2998 36.2376 34.5554 38.2932 33.3639 40.0008C35.7057 41.6334 37.6193 43.9521 38.9046 46.7147H52.8889V7.28948Z" fill="black"/>
<path d="M9.09277 0.83209H53.9072C55.1028 0.83209 56.265 1.37245 57.1328 2.36041C58.0023 3.35044 58.5 4.70551 58.5 6.12994V47.8741C58.5 49.2985 58.0023 50.6536 57.1328 51.6436C56.265 52.6316 55.1028 53.1719 53.9072 53.1719H36.9131C36.3918 53.1717 35.8758 52.9849 35.4395 52.6251C35.0564 52.3091 34.7518 51.8729 34.5645 51.3624L34.4912 51.1387L34.4873 51.127L34.3555 50.7344C33.6654 48.7917 32.4934 47.1046 30.9688 45.8848C29.3414 44.583 27.3922 43.8781 25.3867 43.878C23.3811 43.878 21.4312 44.5828 19.8037 45.8848C18.1773 47.186 16.952 49.0192 16.2852 51.127L16.2812 51.1387C16.1067 51.7447 15.7719 52.2621 15.335 52.6231C14.8992 52.9832 14.3841 53.1708 13.8633 53.1719H9.09277C7.89721 53.1719 6.73497 52.6316 5.86719 51.6436C4.9977 50.6536 4.5 49.2985 4.5 47.8741V6.12994C4.5 4.70551 4.99765 3.35044 5.86719 2.36041C6.73497 1.37245 7.89721 0.83209 9.09277 0.83209ZM9.61133 47.2149H12.1924L12.3262 46.9258C13.5769 44.2377 15.4357 41.9899 17.7002 40.4112L18.1104 40.1251L17.8242 39.7149C16.6841 38.0809 15.9675 36.1077 15.7637 34.0215C15.5598 31.9354 15.8773 29.8279 16.6768 27.9424C17.4761 26.0572 18.7226 24.4762 20.2646 23.3741C21.8059 22.2727 23.5819 21.6925 25.3887 21.6924C27.1955 21.6924 28.9714 22.2726 30.5127 23.3741C32.0549 24.4762 33.3012 26.0571 34.1006 27.9424C34.9 29.8279 35.2175 31.9354 35.0137 34.0215C34.8098 36.1077 34.0943 38.0809 32.9541 39.7149L32.668 40.1251L33.0781 40.4112C35.3425 41.9899 37.2005 44.2378 38.4512 46.9258L38.5859 47.2149H53.3887V6.78912H9.61133V47.2149ZM16.2227 11.2686H46.7773C47.4326 11.2686 48.0767 11.5642 48.5625 12.1172C49.0501 12.6724 49.333 13.4377 49.333 14.2471V39.7569C49.333 40.5663 49.05 41.3317 48.5625 41.8868C48.0767 42.4398 47.4326 42.7364 46.7773 42.7364C46.1222 42.7363 45.4788 42.4397 44.9932 41.8868C44.5056 41.3317 44.2227 40.5663 44.2227 39.7569V17.2256H16.2227C15.5675 17.2256 14.9232 16.9299 14.4375 16.377C13.95 15.822 13.6671 15.0565 13.667 14.2471C13.667 13.4377 13.9499 12.6724 14.4375 12.1172C14.9233 11.5642 15.5674 11.2686 16.2227 11.2686ZM26.2939 27.7628C25.3931 27.5588 24.4598 27.6648 23.6162 28.0626C22.774 28.4598 22.0649 29.1272 21.5703 29.9698C21.0759 30.8122 20.8145 31.797 20.8145 32.7999C20.8145 34.1432 21.2834 35.4421 22.1328 36.4092C22.9841 37.3784 24.1532 37.9385 25.3887 37.9385C26.3089 37.9385 27.2023 37.6274 27.9551 37.0547C28.7068 36.4829 29.2843 35.677 29.623 34.7462C29.9617 33.8153 30.049 32.7934 29.877 31.8087C29.7049 30.8241 29.2793 29.9121 28.6455 29.1905C28.011 28.4681 27.194 27.9666 26.2939 27.7628Z" stroke="#3F5C2C"/>
</g>
<defs>
<filter id="filter0_d_56_387" x="0" y="0.33209" width="63" height="61.34" filterUnits="userSpaceOnUse" color-interpolation-filters="sRGB">
<feFlood flood-opacity="0" result="BackgroundImageFix"/>
<feColorMatrix in="SourceAlpha" type="matrix" values="0 0 0 0 0 0 0 0 0 0 0 0 0 0 0 0 0 0 127 0" result="hardAlpha"/>
<feOffset dy="4"/>
<feGaussianBlur stdDeviation="2"/>
<feComposite in2="hardAlpha" operator="out"/>
<feColorMatrix type="matrix" values="0 0 0 0 0 0 0 0 0 0 0 0 0 0 0 0 0 0 0.25 0"/>
<feBlend mode="normal" in2="BackgroundImageFix" result="effect1_dropShadow_56_387"/>
<feBlend mode="normal" in="SourceGraphic" in2="effect1_dropShadow_56_387" result="shape"/>
</filter>
</defs>
</svg>
