<svg width="76" height="90" viewBox="0 0 76 90" fill="none" xmlns="http://www.w3.org/2000/svg">
<path fill-rule="evenodd" clip-rule="evenodd" d="M51.25 32.5186C51.25 36.815 49.8101 40.9355 47.2471 43.9735C44.6841 47.0115 41.208 48.7182 37.5833 48.7182C33.9587 48.7182 30.4825 47.0115 27.9195 43.9735C25.3565 40.9355 23.9167 36.815 23.9167 32.5186C23.9167 28.2223 25.3565 24.1018 27.9195 21.0638C30.4825 18.0258 33.9587 16.3191 37.5833 16.3191C41.208 16.3191 44.6841 18.0258 47.2471 21.0638C49.8101 24.1018 51.25 28.2223 51.25 32.5186ZM44.4167 32.5186C44.4167 34.6668 43.6967 36.7271 42.4152 38.2461C41.1337 39.7651 39.3957 40.6184 37.5833 40.6184C35.771 40.6184 34.0329 39.7651 32.7514 38.2461C31.4699 36.7271 30.75 34.6668 30.75 32.5186C30.75 30.3705 31.4699 28.3102 32.7514 26.7912C34.0329 25.2722 35.771 24.4189 37.5833 24.4189C39.3957 24.4189 41.1337 25.2722 42.4152 26.7912C43.6967 28.3102 44.4167 30.3705 44.4167 32.5186Z" fill="#EEFFE2"/>
<path fill-rule="evenodd" clip-rule="evenodd" d="M37.5833 0.119537C16.8271 0.119537 0 20.0652 0 44.6683C0 69.2714 16.8271 89.2171 37.5833 89.2171C58.3396 89.2171 75.1667 69.2714 75.1667 44.6683C75.1667 20.0652 58.3396 0.119537 37.5833 0.119537ZM6.83333 44.6683C6.83333 53.1326 9.26942 60.9246 13.3523 67.1128C16.2204 62.6503 19.9197 59.0338 24.1614 56.5455C28.4032 54.0572 33.0726 52.7645 37.8054 52.7681C42.4773 52.7616 47.0887 54.0199 51.288 56.4469C55.4873 58.8739 59.1636 62.4056 62.0364 66.7726C64.9968 62.1703 66.99 56.7986 67.8512 51.1019C68.7124 45.4052 68.4168 39.5474 66.9889 34.013C65.5609 28.4786 63.0417 23.4268 59.6396 19.2757C56.2375 15.1245 52.0504 11.9932 47.4246 10.141C42.7989 8.2888 37.8676 7.76885 33.0387 8.62419C28.2098 9.47954 23.6221 11.6856 19.6553 15.0598C15.6885 18.434 12.4565 22.8794 10.2269 28.0281C7.99721 33.1768 6.83395 38.8809 6.83333 44.6683ZM37.5833 81.1173C30.5242 81.1309 23.678 78.2523 18.204 72.9689C20.4071 69.2293 23.3399 66.1761 26.7528 64.0691C30.1656 61.9622 33.9574 60.8639 37.8054 60.8679C41.6053 60.8639 45.3512 61.9348 48.7319 63.9916C52.1125 66.0484 55.0303 69.0316 57.2428 72.6935C51.7265 78.1487 44.7674 81.1306 37.5833 81.1173Z" fill="#EEFFE2"/>
</svg>
