<svg width="25" height="25" viewBox="0 0 25 25" fill="none" xmlns="http://www.w3.org/2000/svg">
<path fill-rule="evenodd" clip-rule="evenodd" d="M22.6562 12.7192C22.6562 12.1483 22.4916 11.6007 22.1986 11.197C21.9056 10.7934 21.5081 10.5666 21.0937 10.5666H1.5625C1.1481 10.5666 0.750671 10.7934 0.457646 11.197C0.16462 11.6007 0 12.1483 0 12.7192C0 13.2901 0.16462 13.8376 0.457646 14.2413C0.750671 14.645 1.1481 14.8718 1.5625 14.8718H21.0937C21.5081 14.8718 21.9056 14.645 22.1986 14.2413C22.4916 13.8376 22.6562 13.2901 22.6562 12.7192Z" fill="#77B255"/>
<path fill-rule="evenodd" clip-rule="evenodd" d="M25 12.7192C24.9999 12.1484 24.8352 11.6009 24.5422 11.1973L17.5109 1.51059C17.3668 1.30499 17.1944 1.141 17.0037 1.02819C16.8131 0.915372 16.6081 0.855989 16.4006 0.853505C16.1931 0.851022 15.9874 0.905487 15.7954 1.01372C15.6033 1.12196 15.4289 1.2818 15.2822 1.48391C15.1355 1.68602 15.0194 1.92637 14.9409 2.19091C14.8623 2.45546 14.8228 2.73892 14.8246 3.02474C14.8264 3.31056 14.8695 3.59303 14.9514 3.85565C15.0333 4.11828 15.1523 4.35581 15.3015 4.55438L21.2281 12.7192L15.3015 20.8841C15.0083 21.2877 14.8436 21.8353 14.8434 22.4063C14.8433 22.9773 15.0078 23.525 15.3008 23.9289C15.5937 24.3329 15.9912 24.5599 16.4057 24.5601C16.8202 24.5603 17.2177 24.3336 17.5109 23.93L24.5422 14.2433C24.6874 14.0432 24.8027 13.8056 24.8812 13.5441C24.9598 13.2825 25.0001 13.0022 25 12.7192Z" fill="#77B255"/>
</svg>
