<svg width="24" height="29" viewBox="0 0 24 29" fill="none" xmlns="http://www.w3.org/2000/svg">
<path d="M11.9525 28.6673C18.48 28.6673 23.9055 22.2363 23.9055 14.499C23.9055 6.74814 18.468 0.33075 11.9405 0.33075C5.402 0.33075 0 6.74814 0 14.499C0 22.2363 5.4135 28.6673 11.9525 28.6673ZM12.8905 20.3048C12.4685 20.3048 12.164 19.9445 12.164 19.4443V16.5829H11.9765C9.527 16.5829 7.9805 17.3047 6.8905 19.7495C6.6795 20.2218 6.3865 20.3054 6.117 20.3054C5.789 20.3054 5.4725 19.9581 5.4725 19.3192C5.4725 13.7766 7.4525 10.3735 11.9765 10.3735H12.164V7.52572C12.164 7.03974 12.469 6.62309 12.902 6.62309C13.2185 6.62309 13.418 6.78963 13.746 7.15057L18.726 12.6653C18.9725 12.9297 19.043 13.207 19.043 13.4714C19.043 13.7215 18.961 13.9988 18.7265 14.2632L13.746 19.8194C13.453 20.1389 13.207 20.3048 12.8905 20.3048Z" fill="white"/>
</svg>
