<svg width="18" height="21" viewBox="0 0 18 21" fill="none" xmlns="http://www.w3.org/2000/svg">
<path d="M8.56088 17.1917L4.41088 20.155C4.22754 20.2933 4.03588 20.3526 3.83588 20.3328C3.63588 20.313 3.46088 20.234 3.31088 20.0957C3.16088 19.9575 3.04421 19.7848 2.96088 19.5777C2.87754 19.3707 2.86088 19.1384 2.91088 18.8808L4.01088 13.2801L0.335876 9.51664C0.169209 9.33884 0.0652091 9.13615 0.0238758 8.90856C-0.0174575 8.68098 -0.00512426 8.45893 0.0608757 8.24241C0.126876 8.02589 0.226876 7.84809 0.360876 7.70901C0.494876 7.56993 0.678209 7.48103 0.910876 7.44231L5.76088 6.93854L7.63588 1.66381C7.71921 1.42674 7.84854 1.24894 8.02388 1.13041C8.19921 1.01187 8.37821 0.952606 8.56088 0.952606C8.74354 0.952606 8.92254 1.01187 9.09788 1.13041C9.27321 1.24894 9.40254 1.42674 9.48588 1.66381L11.3609 6.93854L16.2109 7.44231C16.4442 7.48182 16.6275 7.57072 16.7609 7.70901C16.8942 7.8473 16.9942 8.0251 17.0609 8.24241C17.1275 8.45972 17.1402 8.68217 17.0989 8.90975C17.0575 9.13733 16.9532 9.33963 16.7859 9.51664L13.1109 13.2801L14.2109 18.8808C14.2609 19.1376 14.2442 19.3699 14.1609 19.5777C14.0775 19.7856 13.9609 19.9582 13.8109 20.0957C13.6609 20.2332 13.4859 20.3123 13.2859 20.3328C13.0859 20.3534 12.8942 20.2941 12.7109 20.155L8.56088 17.1917Z" fill="#3F5C2C"/>
</svg>
