<svg width="20" height="24" viewBox="0 0 20 24" fill="none" xmlns="http://www.w3.org/2000/svg">
<path d="M10 21.6168C12.1217 21.6168 14.1566 20.6177 15.6569 18.8394C17.1571 17.061 18 14.6491 18 12.1341C18 9.61915 17.1571 7.2072 15.6569 5.42885C14.1566 3.65051 12.1217 2.65144 10 2.65144C7.87827 2.65144 5.84344 3.65051 4.34315 5.42885C2.84285 7.2072 2 9.61915 2 12.1341C2 14.6491 2.84285 17.061 4.34315 18.8394C5.84344 20.6177 7.87827 21.6168 10 21.6168ZM10 0.280777C11.3132 0.280777 12.6136 0.587373 13.8268 1.18306C15.0401 1.77874 16.1425 2.65185 17.0711 3.75254C17.9997 4.85322 18.7362 6.15992 19.2388 7.59804C19.7413 9.03615 20 10.5775 20 12.1341C20 15.2778 18.9464 18.2928 17.0711 20.5157C15.1957 22.7386 12.6522 23.9874 10 23.9874C4.47 23.9874 0 18.6534 0 12.1341C0 8.99041 1.05357 5.97547 2.92893 3.75254C4.8043 1.52961 7.34784 0.280777 10 0.280777ZM10.5 6.20744V12.4304L15 15.5953L14.25 17.0532L9 13.3194V6.20744H10.5Z" fill="#3F5C2C"/>
</svg>
