<svg width="30" height="37" viewBox="0 0 30 37" fill="none" xmlns="http://www.w3.org/2000/svg">
<path d="M22.5 13.3333C21.948 13.6177 21.3555 13.8133 20.733 13.8987C21.369 13.4542 21.855 12.7501 22.086 11.9126C21.4795 12.3301 20.8184 12.6245 20.13 12.7839C19.8403 12.4239 19.4918 12.1377 19.1058 11.9427C18.7197 11.7477 18.3042 11.6479 17.8845 11.6495C16.185 11.6495 14.808 13.2586 14.808 15.2411C14.808 15.522 14.8345 15.7946 14.8875 16.0589C13.6684 15.9908 12.4747 15.6219 11.3827 14.9759C10.2907 14.3299 9.32439 13.4211 8.5455 12.3074C8.27308 12.854 8.12909 13.4771 8.1285 14.112C8.1285 15.3566 8.673 16.459 9.498 17.1008C9.00987 17.0811 8.53229 16.9271 8.103 16.651V16.6955C8.10763 17.5302 8.3562 18.3372 8.80638 18.979C9.25655 19.6209 9.8805 20.058 10.572 20.2159C10.1181 20.3587 9.64301 20.3793 9.1815 20.2764C9.38288 20.9943 9.76776 21.6201 10.2827 22.0671C10.7977 22.5141 11.4173 22.7601 12.0555 22.7709C10.9602 23.7706 9.61588 24.311 8.2335 24.3071C7.9855 24.3071 7.741 24.2905 7.5 24.2573C8.9106 25.316 10.5464 25.8766 12.216 25.8735C17.877 25.8735 20.9715 20.4008 20.9715 15.6535L20.961 15.1877C21.5637 14.6839 22.0849 14.0558 22.5 13.3333Z" fill="#86A870"/>
<path d="M6 4.53748C5.20435 4.53748 4.44129 4.91212 3.87868 5.579C3.31607 6.24588 3 7.15037 3 8.09348V29.4295C3 30.3726 3.31607 31.2771 3.87868 31.9439C4.44129 32.6108 5.20435 32.9855 6 32.9855H24C24.7956 32.9855 25.5587 32.6108 26.1213 31.9439C26.6839 31.2771 27 30.3726 27 29.4295V8.09348C27 7.15037 26.6839 6.24588 26.1213 5.579C25.5587 4.91212 24.7956 4.53748 24 4.53748H6ZM6 0.981476H24C25.5913 0.981476 27.1174 1.73077 28.2426 3.06453C29.3679 4.39829 30 6.20726 30 8.09348V29.4295C30 31.3157 29.3679 33.1247 28.2426 34.4584C27.1174 35.7922 25.5913 36.5415 24 36.5415H6C4.4087 36.5415 2.88258 35.7922 1.75736 34.4584C0.632141 33.1247 0 31.3157 0 29.4295V8.09348C0 6.20726 0.632141 4.39829 1.75736 3.06453C2.88258 1.73077 4.4087 0.981476 6 0.981476Z" fill="#86A870"/>
</svg>
