<svg width="20" height="20" viewBox="0 0 20 20" fill="none" xmlns="http://www.w3.org/2000/svg">
<path fill-rule="evenodd" clip-rule="evenodd" d="M10 3.24028C9.54037 3.24028 9.08525 3.34759 8.66061 3.55608C8.23597 3.76457 7.85013 4.07016 7.52513 4.4554C7.20012 4.84064 6.94231 5.29799 6.76642 5.80133C6.59053 6.30467 6.5 6.84414 6.5 7.38895C6.5 7.93376 6.59053 8.47324 6.76642 8.97658C6.94231 9.47992 7.20012 9.93726 7.52513 10.3225C7.85013 10.7077 8.23597 11.0133 8.66061 11.2218C9.08525 11.4303 9.54037 11.5376 10 11.5376C10.9283 11.5376 11.8185 11.1005 12.4749 10.3225C13.1313 9.54448 13.5 8.48925 13.5 7.38895C13.5 6.28866 13.1313 5.23343 12.4749 4.4554C11.8185 3.67738 10.9283 3.24028 10 3.24028ZM8.5 12.723C7.43913 12.723 6.42172 13.2225 5.67157 14.1117C4.92143 15.0008 4.5 16.2068 4.5 17.4643C4.5 18.093 4.71071 18.696 5.08579 19.1406C5.46086 19.5852 5.96957 19.835 6.5 19.835H13.5C14.0304 19.835 14.5391 19.5852 14.9142 19.1406C15.2893 18.696 15.5 18.093 15.5 17.4643C15.5 16.2068 15.0786 15.0008 14.3284 14.1117C13.5783 13.2225 12.5609 12.723 11.5 12.723H8.5ZM15.32 9.05316C15.6379 7.61812 15.5341 6.09755 15.0257 4.74176C14.5174 3.38596 13.6347 2.27574 12.523 1.59386C12.9466 1.25072 13.4287 1.02218 13.9351 0.924423C14.4415 0.826663 14.9599 0.862073 15.4535 1.02815C15.947 1.19422 16.4038 1.48689 16.7913 1.88544C17.1789 2.28399 17.4878 2.77866 17.6961 3.33443C17.9045 3.8902 18.0072 4.49347 17.997 5.10153C17.9868 5.70958 17.864 6.30754 17.6372 6.85307C17.4104 7.39859 17.0851 7.87834 16.6845 8.25833C16.2839 8.63832 15.8178 8.90926 15.319 9.05197L15.32 9.05316ZM17.5 17.4643H18C18.5304 17.4643 19.0391 17.2145 19.4142 16.7699C19.7893 16.3253 20 15.7224 20 15.0936C20 13.8361 19.5786 12.6302 18.8284 11.741C18.0783 10.8518 17.0609 10.3523 16 10.3523H14.9C14.764 10.668 14.6065 10.9701 14.429 11.2555C15.3605 11.8731 16.1362 12.7741 16.676 13.8654C17.2158 14.9568 17.5003 16.1991 17.5 17.4643ZM2 5.01828C1.99985 4.26298 2.17366 3.52195 2.50268 2.87512C2.8317 2.22829 3.30346 1.70021 3.86707 1.34782C4.43068 0.995429 5.06476 0.832106 5.70092 0.875464C6.33708 0.918822 6.95118 1.16722 7.477 1.59386C6.36425 2.27427 5.48066 3.38436 4.97227 4.74065C4.46389 6.09695 4.36114 7.61826 4.681 9.05316C3.9168 8.83514 3.23675 8.31856 2.75041 7.58661C2.26407 6.85467 1.99974 5.94999 2 5.01828ZM5.1 10.3523H4C2.93913 10.3523 1.92172 10.8518 1.17157 11.741C0.421427 12.6302 0 13.8361 0 15.0936C0 15.7224 0.210714 16.3253 0.585786 16.7699C0.960859 17.2145 1.46957 17.4643 2 17.4643H2.5C2.49973 16.1991 2.78418 14.9568 3.32401 13.8654C3.86383 12.7741 4.63949 11.8731 5.571 11.2555C5.39354 10.9701 5.23602 10.668 5.1 10.3523Z" fill="#3F5C2C"/>
</svg>
